<svg width="697" height="697" viewBox="0 0 697 697" fill="none" xmlns="http://www.w3.org/2000/svg">
<path d="M62.3066 348.24C64.0406 348.24 65.7036 348.929 66.9297 350.155C68.1558 351.381 68.8447 353.044 68.8447 354.778V364.149C68.8447 364.722 68.7317 365.289 68.5127 365.817C68.2937 366.346 67.973 366.827 67.5684 367.231C66.751 368.049 65.6423 368.509 64.4863 368.509H47.417C46.5431 368.509 45.6858 368.751 44.9414 369.209C44.1972 369.667 43.5943 370.322 43.2002 371.102C42.806 371.882 42.6361 372.756 42.709 373.627C42.7819 374.498 43.0951 375.332 43.6133 376.035C50.0101 384.719 57.661 392.406 66.3154 398.843C69.3233 401.08 72.9721 402.289 76.7207 402.289H96.7109C100.459 402.289 104.108 401.08 107.116 398.843C115.771 392.406 123.422 384.719 129.818 376.035C130.337 375.332 130.65 374.498 130.723 373.627C130.795 372.756 130.626 371.882 130.231 371.102C129.837 370.322 129.234 369.667 128.489 369.209C127.745 368.751 126.888 368.509 126.015 368.509H108.945C108.373 368.509 107.806 368.396 107.277 368.177C106.749 367.958 106.268 367.636 105.863 367.231C105.459 366.827 105.137 366.346 104.918 365.817C104.699 365.289 104.587 364.722 104.587 364.149V354.778C104.587 353.044 105.275 351.381 106.501 350.155C107.727 348.929 109.391 348.24 111.125 348.24H157.25C161.599 348.24 165.792 349.866 169.004 352.799C172.216 355.731 174.217 359.758 174.612 364.09C178.318 404.685 196.131 442.7 224.956 471.524C253.781 500.349 291.794 518.162 332.39 521.868C336.721 522.264 340.749 524.263 343.682 527.476C346.614 530.688 348.24 534.881 348.24 539.23C348.24 534.881 349.865 530.688 352.798 527.476C355.73 524.263 359.758 522.264 364.09 521.868C404.685 518.162 442.699 500.349 471.523 471.524C500.348 442.7 518.161 404.685 521.867 364.09C522.263 359.758 524.263 355.731 527.476 352.799C530.688 349.866 534.881 348.24 539.23 348.24H585.355C587.089 348.24 588.752 348.929 589.979 350.155C591.205 351.381 591.894 353.044 591.894 354.778V364.149C591.894 364.722 591.78 365.289 591.562 365.817C591.343 366.346 591.022 366.827 590.617 367.231C590.213 367.636 589.732 367.958 589.203 368.177C588.674 368.396 588.107 368.509 587.534 368.509H570.465C569.591 368.509 568.734 368.751 567.99 369.209C567.246 369.667 566.643 370.322 566.249 371.102C565.855 371.882 565.685 372.756 565.758 373.627C565.831 374.498 566.143 375.332 566.661 376.035C573.058 384.72 580.71 392.405 589.364 398.843C592.372 401.08 596.021 402.289 599.77 402.289H619.759C623.507 402.289 627.156 401.08 630.164 398.843C638.819 392.405 646.47 384.72 652.867 376.035C653.385 375.332 653.698 374.498 653.771 373.627C653.843 372.756 653.673 371.882 653.279 371.102C652.885 370.322 652.282 369.667 651.538 369.209C650.794 368.751 649.937 368.509 649.063 368.509H631.994C630.838 368.509 629.73 368.049 628.912 367.231C628.507 366.827 628.186 366.346 627.967 365.817C627.748 365.289 627.635 364.722 627.635 364.149V354.778C627.635 353.044 628.324 351.381 629.55 350.155C630.776 348.929 632.439 348.24 634.173 348.24H679.045C681.412 348.24 683.754 348.722 685.929 349.656C688.103 350.591 690.064 351.959 691.693 353.676C693.322 355.393 694.585 357.424 695.403 359.645C696.222 361.865 696.581 364.229 696.456 366.593C691.923 452.608 655.714 533.901 594.808 594.808C533.901 655.714 452.608 691.923 366.593 696.456C364.229 696.581 361.864 696.223 359.644 695.404C357.423 694.586 355.393 693.323 353.676 691.694C351.959 690.065 350.591 688.103 349.656 685.929C348.722 683.754 348.24 681.412 348.24 679.045C348.24 681.412 347.758 683.754 346.823 685.929C345.889 688.103 344.522 690.065 342.805 691.694C341.088 693.323 339.057 694.586 336.836 695.404C334.615 696.223 332.251 696.581 329.888 696.456C243.873 691.923 162.579 655.714 101.673 594.808C40.7666 533.901 4.55781 452.608 0.0244141 366.593C-0.100134 364.229 0.257519 361.865 1.07617 359.645C1.89487 357.424 3.15721 355.393 4.78613 353.676C6.41512 351.959 8.37717 350.591 10.5518 349.656C12.7261 348.722 15.068 348.24 17.4346 348.24H62.3066ZM282.158 633.218C281.585 633.123 280.999 633.144 280.434 633.279C279.868 633.414 279.336 633.661 278.867 634.005C274.271 637.38 268.81 639.38 263.121 639.77C257.432 640.159 251.75 638.924 246.736 636.207C245.91 635.76 244.962 635.59 244.032 635.726C243.103 635.861 242.242 636.293 241.578 636.957L224.765 653.771C224.253 654.283 223.876 654.914 223.669 655.608C223.462 656.303 223.432 657.038 223.581 657.747C223.73 658.456 224.052 659.117 224.521 659.67C224.989 660.223 225.588 660.65 226.263 660.913C259.612 673.923 294.828 681.514 330.575 683.398C331.166 683.43 331.757 683.339 332.312 683.135C332.868 682.93 333.375 682.614 333.805 682.207C334.234 681.8 334.576 681.31 334.81 680.767C335.043 680.223 335.164 679.637 335.164 679.045V670.715C335.164 669.559 334.704 668.45 333.887 667.633C333.069 666.815 331.961 666.356 330.805 666.356H318.236C317.352 666.356 316.489 666.087 315.761 665.585C303.772 657.313 293.361 646.963 285.021 635.022C284.688 634.546 284.263 634.141 283.771 633.831C283.28 633.521 282.731 633.313 282.158 633.218ZM416.047 633.279C415.482 633.144 414.895 633.123 414.321 633.218C413.748 633.313 413.199 633.521 412.708 633.831C412.217 634.141 411.792 634.546 411.459 635.022C403.118 646.963 392.707 657.313 380.719 665.585C379.991 666.087 379.127 666.356 378.243 666.356H365.675C364.519 666.356 363.41 666.815 362.593 667.633C361.775 668.45 361.316 669.559 361.316 670.715V679.045C361.316 679.637 361.436 680.223 361.67 680.767C361.903 681.31 362.246 681.8 362.675 682.207C363.104 682.614 363.612 682.93 364.167 683.135C364.722 683.339 365.313 683.43 365.904 683.398C401.652 681.514 436.868 673.923 470.217 660.913C470.892 660.65 471.491 660.223 471.959 659.67C472.427 659.117 472.751 658.456 472.899 657.747C473.048 657.038 473.017 656.303 472.811 655.608C472.604 654.914 472.227 654.283 471.715 653.771L454.902 636.957C454.238 636.293 453.377 635.861 452.447 635.726C451.518 635.59 450.569 635.76 449.743 636.207C444.73 638.924 439.047 640.159 433.358 639.77C427.669 639.38 422.208 637.38 417.612 634.005C417.144 633.661 416.612 633.414 416.047 633.279ZM373.626 565.758C372.755 565.685 371.881 565.855 371.102 566.249C370.322 566.643 369.666 567.246 369.208 567.99C368.75 568.735 368.508 569.592 368.508 570.466V587.535C368.508 588.691 368.049 589.8 367.231 590.617C366.414 591.435 365.305 591.894 364.149 591.894H354.778C353.044 591.894 351.381 591.205 350.155 589.979C348.929 588.752 348.24 587.089 348.24 585.355C348.24 587.089 347.551 588.752 346.325 589.979C345.099 591.205 343.436 591.893 341.702 591.894H332.33C331.174 591.893 330.065 591.435 329.248 590.617C328.431 589.8 327.972 588.691 327.972 587.535V570.466C327.972 569.592 327.729 568.735 327.271 567.99C326.814 567.246 326.159 566.643 325.379 566.249C324.599 565.855 323.724 565.685 322.854 565.758C321.983 565.831 321.149 566.144 320.445 566.662C311.761 573.059 304.074 580.71 297.637 589.364C295.4 592.372 294.191 596.021 294.191 599.77V619.76C294.191 623.508 295.4 627.157 297.637 630.165C304.074 638.82 311.761 646.47 320.445 652.867C321.149 653.385 321.983 653.699 322.854 653.771C323.724 653.844 324.599 653.674 325.379 653.28C326.159 652.886 326.814 652.282 327.271 651.538C327.729 650.794 327.972 649.937 327.972 649.063V631.994C327.972 630.838 328.431 629.73 329.248 628.912C330.065 628.095 331.174 627.636 332.33 627.636H341.702C343.436 627.636 345.099 628.325 346.325 629.551C347.551 630.777 348.24 632.44 348.24 634.174C348.24 632.44 348.929 630.777 350.155 629.551C351.381 628.325 353.044 627.636 354.778 627.636H364.149C365.305 627.636 366.414 628.095 367.231 628.912C368.049 629.73 368.508 630.838 368.508 631.994V649.063C368.508 649.937 368.75 650.794 369.208 651.538C369.666 652.282 370.322 652.886 371.102 653.28C371.881 653.674 372.755 653.844 373.626 653.771C374.497 653.699 375.331 653.385 376.034 652.867C384.719 646.47 392.405 638.82 398.843 630.165C401.08 627.157 402.288 623.508 402.288 619.76V599.77C402.288 596.021 401.08 592.372 398.843 589.364C392.405 580.71 384.719 573.059 376.034 566.662C375.331 566.144 374.497 565.831 373.626 565.758ZM190.703 549.253C190.078 549.3 189.47 549.482 188.921 549.785C188.372 550.089 187.895 550.508 187.522 551.013C183.217 556.853 176.944 560.94 169.862 562.52C162.78 564.099 155.365 563.065 148.985 559.608C148.16 559.161 147.211 558.992 146.281 559.127C145.352 559.262 144.491 559.694 143.827 560.358L117.956 586.229C117.544 586.642 117.218 587.133 116.999 587.673C116.78 588.213 116.671 588.793 116.68 589.376C116.688 589.959 116.815 590.535 117.05 591.068C117.285 591.602 117.624 592.083 118.049 592.483C144.159 617.092 174.047 637.354 206.573 652.499C207.384 652.876 208.291 652.995 209.171 652.84C210.051 652.684 210.863 652.262 211.495 651.63L232.843 630.281C233.452 629.672 233.868 628.895 234.036 628.05C234.204 627.204 234.118 626.328 233.788 625.531C233.458 624.735 232.899 624.054 232.183 623.575C231.466 623.096 230.623 622.841 229.761 622.841H228.593C228.246 622.841 227.913 622.703 227.668 622.458C227.423 622.213 227.285 621.88 227.285 621.533V597.996C227.285 597.649 227.423 597.317 227.668 597.071C227.913 596.826 228.246 596.688 228.593 596.688H229.761C230.623 596.688 231.466 596.433 232.183 595.954C232.899 595.475 233.458 594.794 233.788 593.998C234.118 593.202 234.204 592.325 234.036 591.479C233.868 590.634 233.452 589.857 232.843 589.247L194.112 550.518C193.669 550.074 193.134 549.731 192.546 549.513C191.958 549.295 191.329 549.206 190.703 549.253ZM505.776 549.253C505.151 549.206 504.522 549.294 503.934 549.513C503.345 549.731 502.811 550.074 502.367 550.518L463.637 589.247C463.027 589.857 462.613 590.634 462.444 591.479C462.276 592.325 462.362 593.202 462.692 593.998C463.022 594.794 463.581 595.475 464.298 595.954C465.014 596.433 465.857 596.688 466.719 596.688H467.888C468.234 596.689 468.566 596.826 468.812 597.071C469.057 597.317 469.195 597.649 469.195 597.996V621.533C469.195 621.88 469.057 622.213 468.812 622.458C468.566 622.703 468.234 622.841 467.888 622.841H466.719C465.857 622.841 465.014 623.096 464.298 623.575C463.581 624.054 463.022 624.735 462.692 625.531C462.362 626.328 462.276 627.204 462.444 628.05C462.612 628.895 463.027 629.672 463.637 630.281L484.984 651.63C485.617 652.262 486.428 652.684 487.309 652.84C488.189 652.995 489.096 652.876 489.906 652.499C522.433 637.354 552.32 617.092 578.431 592.483C578.855 592.083 579.196 591.602 579.431 591.068C579.666 590.535 579.791 589.959 579.8 589.376C579.808 588.793 579.7 588.213 579.48 587.673C579.261 587.133 578.936 586.642 578.523 586.229L552.653 560.358C551.989 559.694 551.128 559.262 550.198 559.127C549.269 558.992 548.32 559.161 547.494 559.608C541.114 563.065 533.7 564.099 526.618 562.52C519.536 560.94 513.264 556.853 508.958 551.013C508.586 550.508 508.109 550.089 507.56 549.785C507.011 549.481 506.402 549.3 505.776 549.253ZM261.065 594.945C257.135 594.945 253.365 596.506 250.586 599.285C247.807 602.064 246.245 605.834 246.245 609.765C246.245 613.695 247.807 617.465 250.586 620.244C253.365 623.023 257.135 624.584 261.065 624.584C264.996 624.584 268.765 623.023 271.544 620.244C274.323 617.465 275.885 613.695 275.885 609.765C275.885 605.834 274.323 602.064 271.544 599.285C268.765 596.506 264.996 594.945 261.065 594.945ZM435.415 594.945C431.485 594.945 427.715 596.506 424.936 599.285C422.156 602.064 420.595 605.834 420.595 609.765C420.595 613.695 422.156 617.465 424.936 620.244C427.715 623.023 431.485 624.584 435.415 624.584C439.345 624.584 443.114 623.023 445.894 620.244C448.673 617.465 450.234 613.695 450.234 609.765C450.234 605.834 448.673 602.064 445.894 599.285C443.114 596.506 439.345 594.945 435.415 594.945ZM219.629 486.252C218.512 486.281 217.448 486.737 216.658 487.527L190.507 513.679C189.843 514.343 189.411 515.204 189.275 516.133C189.14 517.062 189.309 518.011 189.757 518.837C192.057 523.083 193.302 527.82 193.385 532.648C193.404 533.778 193.862 534.856 194.661 535.655L241.578 582.572C242.242 583.236 243.103 583.668 244.032 583.803C244.962 583.938 245.91 583.77 246.736 583.322C251.75 580.606 257.432 579.37 263.121 579.76C268.81 580.15 274.271 582.149 278.867 585.524C279.336 585.868 279.868 586.115 280.434 586.25C280.999 586.385 281.585 586.406 282.158 586.312C282.731 586.217 283.28 586.008 283.771 585.698C284.263 585.388 284.688 584.983 285.021 584.507C293.361 572.567 303.772 562.216 315.761 553.944C316.489 553.442 317.352 553.173 318.236 553.173H330.805C331.961 553.173 333.069 552.714 333.887 551.896C334.704 551.079 335.164 549.97 335.164 548.814V539.23C335.164 538.143 334.757 537.095 334.024 536.292C333.291 535.489 332.284 534.989 331.201 534.89C290.835 531.205 252.75 514.533 222.66 487.374C221.831 486.626 220.746 486.223 219.629 486.252ZM476.852 486.252C475.735 486.223 474.649 486.625 473.819 487.374C443.729 514.533 405.645 531.205 365.278 534.89C364.196 534.989 363.189 535.489 362.456 536.292C361.723 537.095 361.316 538.143 361.316 539.23V548.814C361.316 549.97 361.775 551.079 362.593 551.896C363.41 552.714 364.519 553.173 365.675 553.173H378.243C379.127 553.173 379.991 553.442 380.719 553.944C392.707 562.216 403.118 572.567 411.459 584.507C411.792 584.983 412.217 585.388 412.708 585.698C413.199 586.008 413.748 586.217 414.321 586.312C414.895 586.406 415.482 586.385 416.047 586.25C416.612 586.115 417.144 585.868 417.612 585.524C422.208 582.149 427.669 580.15 433.358 579.76C439.047 579.37 444.73 580.606 449.743 583.322C450.569 583.77 451.518 583.938 452.447 583.803C453.377 583.668 454.238 583.236 454.902 582.572L501.818 535.655C502.617 534.856 503.075 533.778 503.095 532.648C503.178 527.82 504.422 523.083 506.723 518.837C507.17 518.011 507.339 517.062 507.204 516.133C507.069 515.203 506.637 514.343 505.973 513.679L479.822 487.527C479.032 486.737 477.969 486.281 476.852 486.252ZM105.001 462.444C104.155 462.276 103.279 462.362 102.482 462.692C101.686 463.022 101.005 463.581 100.526 464.298C100.047 465.015 99.792 465.858 99.792 466.72V467.888C99.792 468.234 99.6544 468.567 99.4092 468.812C99.164 469.058 98.8311 469.195 98.4844 469.195H74.9473C74.7755 469.195 74.6049 469.161 74.4463 469.096C74.2878 469.03 74.1438 468.934 74.0225 468.812C73.901 468.691 73.805 468.546 73.7393 468.388C73.6736 468.229 73.6396 468.059 73.6396 467.888V466.72C73.6396 465.858 73.3842 465.015 72.9053 464.298C72.4264 463.581 71.7455 463.022 70.9492 462.692C70.1529 462.363 69.2761 462.276 68.4307 462.444C67.5852 462.613 66.8078 463.028 66.1982 463.638L44.8506 484.985C44.2185 485.618 43.7961 486.429 43.6406 487.31C43.4852 488.19 43.6041 489.097 43.9814 489.907C59.1262 522.434 79.3888 552.321 103.997 578.432C104.397 578.856 104.878 579.196 105.412 579.431C105.946 579.666 106.521 579.791 107.104 579.8C107.687 579.808 108.266 579.701 108.807 579.481C109.347 579.262 109.839 578.937 110.251 578.524L136.122 552.653C136.786 551.989 137.217 551.128 137.353 550.198C137.488 549.269 137.319 548.321 136.872 547.495C133.415 541.115 132.38 533.7 133.96 526.618C135.54 519.536 139.627 513.264 145.468 508.958C145.973 508.586 146.392 508.109 146.695 507.56C146.999 507.011 147.18 506.402 147.228 505.776C147.275 505.151 147.186 504.523 146.968 503.935C146.75 503.346 146.407 502.812 145.963 502.368L107.232 463.638C106.623 463.028 105.846 462.613 105.001 462.444ZM628.05 462.444C627.204 462.276 626.328 462.363 625.531 462.692C624.735 463.022 624.054 463.581 623.575 464.298C623.096 465.015 622.841 465.858 622.841 466.72V467.888C622.841 468.059 622.807 468.229 622.741 468.388C622.675 468.546 622.578 468.691 622.457 468.812C622.336 468.934 622.192 469.03 622.033 469.096C621.875 469.161 621.705 469.195 621.533 469.195H597.995C597.649 469.195 597.316 469.057 597.071 468.812C596.826 468.567 596.688 468.234 596.688 467.888V466.72C596.687 465.858 596.432 465.015 595.953 464.298C595.474 463.581 594.793 463.022 593.997 462.692C593.201 462.363 592.324 462.276 591.479 462.444C590.633 462.613 589.857 463.028 589.247 463.638L550.517 502.368C550.073 502.812 549.73 503.346 549.512 503.935C549.294 504.523 549.205 505.151 549.252 505.776C549.299 506.402 549.481 507.01 549.785 507.56C550.089 508.109 550.508 508.586 551.013 508.958C556.853 513.264 560.94 519.536 562.52 526.618C564.099 533.7 563.065 541.115 559.608 547.495C559.161 548.321 558.992 549.269 559.127 550.198C559.262 551.128 559.694 551.989 560.358 552.653L586.229 578.524C586.641 578.937 587.132 579.262 587.673 579.481C588.213 579.701 588.793 579.808 589.376 579.8C589.959 579.791 590.535 579.666 591.068 579.431C591.602 579.196 592.083 578.856 592.483 578.432C617.092 552.321 637.353 522.433 652.498 489.907C652.875 489.097 652.994 488.19 652.839 487.31C652.683 486.429 652.261 485.618 651.629 484.985L630.281 463.638C629.672 463.028 628.895 462.613 628.05 462.444ZM163.314 518.347C161.368 518.347 159.441 518.73 157.644 519.475C155.846 520.219 154.211 521.31 152.835 522.687C151.459 524.063 150.368 525.697 149.623 527.495C148.878 529.293 148.495 531.22 148.495 533.166C148.495 535.112 148.878 537.039 149.623 538.837C150.368 540.635 151.459 542.269 152.835 543.646C154.211 545.022 155.846 546.113 157.644 546.857C159.441 547.602 161.368 547.985 163.314 547.985C165.261 547.985 167.187 547.602 168.985 546.857C170.783 546.113 172.418 545.022 173.794 543.646C175.17 542.269 176.261 540.635 177.006 538.837C177.751 537.039 178.134 535.112 178.134 533.166C178.134 531.22 177.751 529.293 177.006 527.495C176.261 525.697 175.17 524.063 173.794 522.687C172.418 521.31 170.783 520.219 168.985 519.475C167.187 518.73 165.261 518.347 163.314 518.347ZM533.165 518.347C531.219 518.347 529.292 518.73 527.494 519.475C525.696 520.219 524.063 521.311 522.687 522.687C521.31 524.063 520.218 525.697 519.474 527.495C518.729 529.293 518.346 531.22 518.346 533.166C518.346 535.112 518.729 537.039 519.474 538.837C520.218 540.635 521.31 542.269 522.687 543.646C524.063 545.021 525.696 546.113 527.494 546.857C529.292 547.602 531.219 547.985 533.165 547.985C535.111 547.985 537.039 547.602 538.837 546.857C540.635 546.113 542.268 545.021 543.645 543.646C545.021 542.269 546.113 540.635 546.857 538.837C547.602 537.039 547.985 535.112 547.985 533.166C547.985 531.22 547.602 529.293 546.857 527.495C546.113 525.697 545.021 524.063 543.645 522.687C542.268 521.311 540.635 520.219 538.837 519.475C537.039 518.73 535.111 518.347 533.165 518.347ZM147.666 361.316C146.51 361.316 145.401 361.776 144.584 362.593C143.767 363.41 143.308 364.519 143.308 365.675V378.244C143.308 379.128 143.038 379.992 142.536 380.72C134.265 392.708 123.914 403.119 111.974 411.46C111.497 411.793 111.092 412.217 110.782 412.709C110.472 413.201 110.264 413.749 110.169 414.322C110.074 414.895 110.095 415.482 110.23 416.047C110.366 416.612 110.612 417.145 110.956 417.613C114.331 422.209 116.331 427.67 116.721 433.358C117.111 439.047 115.875 444.731 113.158 449.744C112.711 450.57 112.542 451.518 112.677 452.447C112.812 453.377 113.244 454.238 113.908 454.902L160.825 501.819C161.624 502.618 162.702 503.075 163.832 503.095C168.66 503.178 173.398 504.423 177.644 506.724C178.469 507.171 179.417 507.339 180.347 507.204C181.276 507.069 182.138 506.638 182.802 505.974L208.953 479.822C209.743 479.032 210.199 477.968 210.228 476.852C210.256 475.735 209.855 474.65 209.106 473.82C181.948 443.73 165.275 405.646 161.59 365.279C161.491 364.196 160.992 363.189 160.188 362.456C159.385 361.723 158.337 361.317 157.25 361.316H147.666ZM539.23 361.316C538.143 361.316 537.095 361.723 536.292 362.456C535.489 363.189 534.989 364.196 534.89 365.279C531.205 405.646 514.533 443.73 487.374 473.82C486.625 474.65 486.223 475.735 486.252 476.852C486.281 477.969 486.737 479.032 487.527 479.822L513.678 505.974C514.342 506.638 515.203 507.069 516.133 507.204C517.062 507.339 518.011 507.171 518.837 506.724C523.082 504.423 527.819 503.178 532.647 503.095C533.777 503.075 534.856 502.618 535.655 501.819L582.571 454.902C583.235 454.238 583.668 453.377 583.803 452.447C583.938 451.518 583.769 450.57 583.321 449.744C580.605 444.731 579.37 439.047 579.76 433.358C580.15 427.67 582.148 422.209 585.523 417.613C585.867 417.145 586.115 416.612 586.25 416.047C586.385 415.482 586.405 414.895 586.311 414.322C586.216 413.749 586.008 413.2 585.698 412.709C585.388 412.218 584.983 411.793 584.507 411.46C572.567 403.119 562.215 392.708 553.943 380.72C553.441 379.992 553.173 379.128 553.173 378.244V365.675C553.173 364.519 552.714 363.41 551.896 362.593C551.079 361.775 549.969 361.316 548.813 361.316H539.23ZM17.4346 361.316C16.843 361.316 16.2574 361.437 15.7139 361.671C15.1703 361.905 14.6796 362.247 14.2725 362.676C13.8654 363.105 13.5503 363.613 13.3457 364.168C13.1411 364.723 13.051 365.314 13.082 365.904C14.9661 401.652 22.5574 436.868 35.5674 470.218C35.8306 470.892 36.2579 471.491 36.8105 471.959C37.3633 472.427 38.0244 472.751 38.7334 472.899C39.4423 473.048 40.1769 473.017 40.8711 472.811C41.5654 472.604 42.1977 472.228 42.71 471.716L59.5234 454.902C60.1875 454.238 60.6188 453.377 60.7539 452.447C60.889 451.518 60.7208 450.57 60.2734 449.744C57.5567 444.731 56.3211 439.047 56.7109 433.358C57.1009 427.67 59.0996 422.209 62.4746 417.613C62.8186 417.145 63.066 416.612 63.2012 416.047C63.3363 415.482 63.3574 414.895 63.2627 414.322C63.168 413.749 62.9592 413.2 62.6494 412.709C62.3396 412.217 61.9343 411.793 61.458 411.46C49.5178 403.119 39.1671 392.708 30.8955 380.72C30.3934 379.992 30.1241 379.128 30.124 378.244V365.675C30.1239 364.519 29.665 363.41 28.8477 362.593C28.0303 361.775 26.9215 361.316 25.7656 361.316H17.4346ZM670.715 361.316C669.559 361.316 668.45 361.776 667.633 362.593C666.816 363.41 666.356 364.519 666.355 365.675V378.244C666.355 379.128 666.087 379.992 665.585 380.72C657.313 392.708 646.962 403.119 635.021 411.46C634.545 411.793 634.14 412.218 633.83 412.709C633.52 413.2 633.313 413.749 633.218 414.322C633.123 414.895 633.143 415.482 633.278 416.047C633.414 416.612 633.661 417.145 634.005 417.613C637.38 422.209 639.38 427.67 639.77 433.358C640.159 439.047 638.924 444.731 636.207 449.744C635.76 450.57 635.591 451.518 635.726 452.447C635.861 453.377 636.293 454.238 636.957 454.902L653.77 471.716C654.282 472.228 654.914 472.604 655.608 472.811C656.303 473.017 657.038 473.048 657.747 472.899C658.456 472.751 659.116 472.427 659.669 471.959C660.222 471.491 660.65 470.893 660.913 470.218C673.923 436.868 681.513 401.652 683.397 365.904C683.429 365.314 683.339 364.723 683.135 364.168C682.93 363.613 682.614 363.105 682.207 362.676C681.8 362.247 681.309 361.905 680.766 361.671C680.222 361.437 679.637 361.316 679.045 361.316H670.715ZM86.7158 420.596C84.7697 420.596 82.842 420.979 81.0439 421.724C79.2462 422.468 77.6123 423.56 76.2363 424.936C74.8602 426.312 73.7692 427.946 73.0244 429.744C72.2797 431.542 71.8955 433.469 71.8955 435.415C71.8955 437.361 72.2797 439.288 73.0244 441.086C73.7692 442.884 74.8602 444.518 76.2363 445.895C77.6123 447.271 79.2462 448.362 81.0439 449.106C82.842 449.851 84.7697 450.234 86.7158 450.234C88.6619 450.234 90.5888 449.851 92.3867 449.106C94.1846 448.362 95.8183 447.27 97.1943 445.895C98.5705 444.518 99.6625 442.884 100.407 441.086C101.152 439.288 101.535 437.361 101.535 435.415C101.535 433.469 101.152 431.542 100.407 429.744C99.6625 427.946 98.5705 426.312 97.1943 424.936C95.8183 423.56 94.1845 422.468 92.3867 421.724C90.5888 420.979 88.6619 420.596 86.7158 420.596ZM609.765 420.596C607.818 420.596 605.891 420.979 604.093 421.724C602.295 422.468 600.661 423.56 599.285 424.936C597.909 426.312 596.817 427.946 596.072 429.744C595.328 431.542 594.944 433.469 594.944 435.415C594.944 437.361 595.328 439.288 596.072 441.086C596.817 442.884 597.909 444.518 599.285 445.895C600.661 447.271 602.295 448.362 604.093 449.106C605.891 449.851 607.818 450.234 609.765 450.234C611.711 450.234 613.638 449.851 615.436 449.106C617.233 448.362 618.867 447.271 620.243 445.895C621.619 444.518 622.711 442.884 623.456 441.086C624.201 439.288 624.584 437.361 624.584 435.415C624.584 433.469 624.201 431.542 623.456 429.744C622.711 427.946 621.619 426.312 620.243 424.936C618.867 423.56 617.233 422.468 615.436 421.724C613.638 420.979 611.711 420.596 609.765 420.596ZM359.644 1.07617C361.864 0.257454 364.229 -0.100158 366.593 0.0244141C452.608 4.55787 533.901 40.7657 594.808 101.672C655.714 162.578 691.923 243.872 696.456 329.887C696.581 332.25 696.222 334.615 695.403 336.836C694.585 339.057 693.322 341.088 691.693 342.805C690.065 344.522 688.103 345.889 685.929 346.823C683.754 347.758 681.412 348.239 679.045 348.239H634.173C632.439 348.239 630.776 347.55 629.55 346.324C628.324 345.098 627.635 343.435 627.635 341.701V332.33C627.635 331.758 627.748 331.191 627.967 330.662C628.186 330.133 628.507 329.653 628.912 329.248C629.73 328.431 630.838 327.972 631.994 327.972H649.063C649.937 327.972 650.794 327.729 651.538 327.271C652.282 326.814 652.885 326.158 653.279 325.378C653.673 324.598 653.843 323.724 653.771 322.854C653.698 321.983 653.385 321.149 652.867 320.445C646.47 311.761 638.819 304.074 630.164 297.637C627.156 295.4 623.507 294.191 619.759 294.191H599.77C596.021 294.191 592.372 295.4 589.364 297.637C580.71 304.074 573.058 311.761 566.661 320.445C566.143 321.149 565.831 321.983 565.758 322.854C565.685 323.724 565.855 324.598 566.249 325.378C566.643 326.158 567.246 326.814 567.99 327.271C568.734 327.729 569.591 327.972 570.465 327.972H587.534C588.107 327.972 588.674 328.085 589.203 328.304C589.732 328.523 590.213 328.843 590.617 329.248C591.022 329.653 591.343 330.133 591.562 330.662C591.781 331.191 591.894 331.758 591.894 332.33V341.701C591.894 343.435 591.204 345.098 589.979 346.324C588.752 347.55 587.089 348.239 585.355 348.239H539.23C534.881 348.239 530.688 346.614 527.476 343.682C524.263 340.749 522.263 336.721 521.867 332.39C518.161 291.794 500.348 253.781 471.523 224.956C442.699 196.131 404.685 178.318 364.09 174.612C359.758 174.217 355.73 172.216 352.798 169.004C349.865 165.792 348.24 161.599 348.24 157.249C348.24 161.599 346.614 165.791 343.682 169.004C340.749 172.216 336.721 174.217 332.39 174.612C291.794 178.318 253.781 196.131 224.956 224.956C196.131 253.781 178.318 291.794 174.612 332.39C174.217 336.721 172.216 340.749 169.004 343.682C165.792 346.614 161.599 348.239 157.25 348.239H111.125C109.391 348.239 107.727 347.55 106.501 346.324C105.275 345.098 104.587 343.435 104.587 341.701V332.33C104.587 331.758 104.699 331.191 104.918 330.662C105.137 330.133 105.459 329.653 105.863 329.248C106.268 328.843 106.749 328.523 107.277 328.304C107.806 328.085 108.373 327.972 108.945 327.972H126.015C126.888 327.972 127.745 327.729 128.489 327.271C129.234 326.814 129.837 326.158 130.231 325.378C130.625 324.598 130.795 323.724 130.723 322.854C130.65 321.983 130.337 321.149 129.818 320.445C123.421 311.761 115.771 304.074 107.116 297.637C104.108 295.4 100.459 294.192 96.7109 294.191H76.7207C72.9721 294.191 69.3233 295.399 66.3154 297.637C57.6608 304.074 50.0102 311.761 43.6133 320.445C43.095 321.149 42.7818 321.983 42.709 322.854C42.6362 323.724 42.8061 324.598 43.2002 325.378C43.5944 326.158 44.1971 326.814 44.9414 327.271C45.6858 327.729 46.5431 327.972 47.417 327.972H64.4863C65.6423 327.972 66.751 328.431 67.5684 329.248C67.973 329.653 68.2937 330.133 68.5127 330.662C68.7317 331.191 68.8447 331.758 68.8447 332.33V341.701C68.8447 343.435 68.1557 345.098 66.9297 346.324C65.7036 347.55 64.0407 348.239 62.3066 348.239H17.4346C15.0679 348.239 12.7262 347.758 10.5518 346.823C8.37723 345.889 6.4151 344.522 4.78613 342.805C3.1572 341.088 1.89489 339.057 1.07617 336.836C0.257453 334.615 -0.100157 332.25 0.0244141 329.887C4.55789 243.872 40.7667 162.578 101.673 101.672C162.579 40.7658 243.873 4.5578 329.888 0.0244141C332.251 -0.100107 334.615 0.257492 336.836 1.07617C339.057 1.89489 341.088 3.15717 342.805 4.78613C344.522 6.41499 345.889 8.37642 346.823 10.5508C347.758 12.7253 348.24 15.0678 348.24 17.4346C348.24 15.0678 348.722 12.7253 349.656 10.5508C350.591 8.37632 351.959 6.41504 353.676 4.78613C355.393 3.15734 357.423 1.89486 359.644 1.07617ZM40.8711 223.669C40.1769 223.462 39.4423 223.432 38.7334 223.581C38.0244 223.73 37.3633 224.052 36.8105 224.521C36.2578 224.989 35.8307 225.588 35.5674 226.263C22.5575 259.612 14.9661 294.828 13.082 330.575C13.0509 331.166 13.141 331.757 13.3457 332.312C13.5504 332.868 13.8653 333.375 14.2725 333.805C14.6797 334.234 15.1703 334.576 15.7139 334.81C16.2574 335.043 16.843 335.163 17.4346 335.163H25.7656C26.9215 335.163 28.0303 334.704 28.8477 333.887C29.665 333.069 30.124 331.961 30.124 330.805V318.236C30.124 317.352 30.3933 316.489 30.8955 315.761C39.1671 303.772 49.5178 293.361 61.458 285.021C61.9344 284.688 62.3396 284.263 62.6494 283.771C62.9592 283.28 63.1679 282.731 63.2627 282.158C63.3575 281.585 63.3364 280.998 63.2012 280.433C63.066 279.868 62.8185 279.335 62.4746 278.867C59.0994 274.271 57.1008 268.81 56.7109 263.121C56.3211 257.432 57.5567 251.75 60.2734 246.736C60.721 245.91 60.8891 244.962 60.7539 244.032C60.6187 243.103 60.1876 242.241 59.5234 241.577L42.71 224.765C42.1977 224.252 41.5654 223.876 40.8711 223.669ZM180.347 189.275C179.417 189.14 178.469 189.309 177.644 189.757C173.398 192.057 168.66 193.302 163.832 193.385C162.702 193.404 161.624 193.862 160.825 194.661L113.908 241.577C113.244 242.241 112.812 243.103 112.677 244.032C112.542 244.962 112.711 245.91 113.158 246.736C115.875 251.75 117.111 257.432 116.721 263.121C116.331 268.81 114.331 274.271 110.956 278.867C110.612 279.335 110.366 279.868 110.23 280.433C110.095 280.998 110.074 281.585 110.169 282.158C110.264 282.731 110.472 283.28 110.782 283.771C111.092 284.263 111.497 284.688 111.974 285.021C123.914 293.361 134.265 303.772 142.536 315.761C143.038 316.489 143.308 317.352 143.308 318.236V330.805C143.308 331.961 143.767 333.069 144.584 333.887C145.401 334.704 146.51 335.163 147.666 335.163H157.25C158.337 335.163 159.385 334.756 160.188 334.023C160.991 333.29 161.491 332.284 161.59 331.201C165.275 290.835 181.948 252.75 209.106 222.66C209.855 221.831 210.256 220.745 210.228 219.628C210.199 218.511 209.743 217.447 208.953 216.657L182.802 190.507C182.138 189.843 181.276 189.411 180.347 189.275ZM518.837 189.757C518.011 189.309 517.062 189.14 516.133 189.275C515.203 189.411 514.342 189.843 513.678 190.507L487.527 216.657C486.737 217.447 486.281 218.511 486.252 219.628C486.223 220.745 486.625 221.831 487.374 222.66C514.533 252.75 531.205 290.835 534.89 331.201C534.989 332.284 535.489 333.29 536.292 334.023C537.095 334.757 538.143 335.163 539.23 335.163H548.813C549.969 335.163 551.079 334.704 551.896 333.887C552.714 333.069 553.173 331.961 553.173 330.805V318.236C553.173 317.352 553.441 316.489 553.943 315.761C562.215 303.772 572.567 293.361 584.507 285.021C584.983 284.688 585.388 284.263 585.698 283.771C586.008 283.28 586.216 282.731 586.311 282.158C586.405 281.585 586.385 280.998 586.25 280.433C586.115 279.868 585.867 279.335 585.523 278.867C582.148 274.271 580.15 268.81 579.76 263.121C579.37 257.432 580.605 251.75 583.321 246.736C583.769 245.91 583.938 244.962 583.803 244.032C583.668 243.103 583.236 242.241 582.571 241.577L535.655 194.661C534.856 193.862 533.777 193.404 532.647 193.385C527.819 193.302 523.082 192.057 518.837 189.757ZM657.747 223.581C657.038 223.432 656.303 223.462 655.608 223.669C654.914 223.876 654.282 224.252 653.77 224.765L636.957 241.577C636.293 242.241 635.861 243.103 635.726 244.032C635.59 244.962 635.759 245.91 636.207 246.736C638.924 251.75 640.159 257.432 639.77 263.121C639.38 268.81 637.38 274.271 634.005 278.867C633.661 279.335 633.414 279.868 633.278 280.433C633.143 280.998 633.123 281.585 633.218 282.158C633.313 282.731 633.52 283.28 633.83 283.771C634.14 284.263 634.545 284.688 635.021 285.021C646.962 293.361 657.313 303.772 665.585 315.761C666.087 316.489 666.355 317.352 666.355 318.236V330.805C666.355 331.961 666.815 333.069 667.633 333.887C668.45 334.704 669.559 335.163 670.715 335.163H679.045C679.637 335.163 680.222 335.043 680.766 334.81C681.309 334.576 681.8 334.234 682.207 333.805C682.614 333.375 682.93 332.868 683.135 332.312C683.339 331.757 683.429 331.166 683.397 330.575C681.513 294.828 673.923 259.612 660.913 226.263C660.65 225.588 660.222 224.989 659.669 224.521C659.116 224.052 658.456 223.73 657.747 223.581ZM86.7158 246.245C84.7697 246.245 82.842 246.628 81.0439 247.373C79.2461 248.118 77.6124 249.21 76.2363 250.586C74.8603 251.962 73.7691 253.596 73.0244 255.394C72.2797 257.191 71.8956 259.118 71.8955 261.064C71.8955 263.011 72.2797 264.938 73.0244 266.736C73.7691 268.534 74.8603 270.168 76.2363 271.544C77.6124 272.92 79.246 274.012 81.0439 274.757C82.842 275.502 84.7697 275.885 86.7158 275.885C88.6618 275.885 90.5888 275.501 92.3867 274.757C94.1846 274.012 95.8182 272.92 97.1943 271.544C98.5704 270.168 99.6625 268.534 100.407 266.736C101.152 264.938 101.535 263.011 101.535 261.064C101.535 259.118 101.152 257.191 100.407 255.394C99.6625 253.596 98.5705 251.962 97.1943 250.586C95.8182 249.21 94.1847 248.118 92.3867 247.373C90.5888 246.628 88.6618 246.245 86.7158 246.245ZM609.765 246.245C607.818 246.245 605.891 246.628 604.093 247.373C602.295 248.118 600.661 249.21 599.285 250.586C597.909 251.962 596.817 253.596 596.072 255.394C595.328 257.191 594.944 259.118 594.944 261.064C594.944 263.011 595.328 264.938 596.072 266.736C596.817 268.534 597.909 270.168 599.285 271.544C600.661 272.92 602.295 274.012 604.093 274.757C605.891 275.502 607.818 275.885 609.765 275.885C611.711 275.885 613.638 275.502 615.436 274.757C617.234 274.012 618.867 272.92 620.243 271.544C621.619 270.168 622.711 268.534 623.456 266.736C624.201 264.938 624.584 263.011 624.584 261.064C624.584 259.118 624.201 257.191 623.456 255.394C622.711 253.596 621.619 251.962 620.243 250.586C618.867 249.21 617.234 248.118 615.436 247.373C613.638 246.628 611.711 246.245 609.765 246.245ZM107.104 116.68C106.521 116.688 105.946 116.814 105.412 117.049C104.878 117.284 104.397 117.624 103.997 118.049C79.3888 144.159 59.1261 174.047 43.9814 206.573C43.6042 207.384 43.4851 208.291 43.6406 209.171C43.7961 210.051 44.2184 210.863 44.8506 211.495L66.1982 232.843C66.8078 233.452 67.5852 233.867 68.4307 234.035C69.2761 234.203 70.1528 234.117 70.9492 233.787C71.7454 233.457 72.4264 232.898 72.9053 232.182C73.384 231.465 73.6396 230.623 73.6396 229.761V228.592C73.6397 228.42 73.6736 228.25 73.7393 228.092C73.8049 227.933 73.9012 227.789 74.0225 227.668C74.1438 227.547 74.2877 227.45 74.4463 227.384C74.6049 227.318 74.7755 227.284 74.9473 227.284H98.4844C98.8311 227.284 99.164 227.423 99.4092 227.668C99.6541 227.913 99.7919 228.245 99.792 228.592V229.761C99.792 230.623 100.048 231.465 100.526 232.182C101.005 232.898 101.686 233.457 102.482 233.787C103.279 234.117 104.155 234.203 105.001 234.035C105.846 233.867 106.623 233.452 107.232 232.843L145.963 194.112C146.407 193.669 146.75 193.134 146.968 192.546C147.186 191.958 147.275 191.329 147.228 190.703C147.18 190.077 146.999 189.469 146.695 188.92C146.392 188.371 145.973 187.894 145.468 187.521C139.627 183.216 135.54 176.943 133.96 169.861C132.38 162.779 133.415 155.365 136.872 148.985C137.32 148.159 137.488 147.211 137.353 146.281C137.217 145.352 136.786 144.49 136.122 143.826L110.251 117.956C109.839 117.544 109.347 117.218 108.807 116.999C108.266 116.78 107.688 116.671 107.104 116.68ZM589.376 116.68C588.793 116.671 588.213 116.78 587.673 116.999C587.132 117.218 586.641 117.544 586.229 117.956L560.358 143.826C559.694 144.49 559.262 145.352 559.127 146.281C558.992 147.211 559.161 148.159 559.608 148.985C563.065 155.365 564.099 162.779 562.52 169.861C560.94 176.943 556.853 183.216 551.013 187.521C550.508 187.894 550.089 188.371 549.785 188.92C549.481 189.469 549.299 190.077 549.252 190.703C549.205 191.329 549.294 191.958 549.512 192.546C549.73 193.134 550.073 193.669 550.517 194.112L589.247 232.843C589.857 233.452 590.633 233.867 591.479 234.035C592.324 234.203 593.201 234.117 593.997 233.787C594.794 233.457 595.474 232.898 595.953 232.182C596.432 231.465 596.687 230.623 596.688 229.761V228.592C596.688 228.245 596.826 227.913 597.071 227.668C597.316 227.423 597.648 227.284 597.995 227.284H621.533C621.705 227.284 621.875 227.318 622.033 227.384C622.192 227.449 622.336 227.547 622.457 227.668C622.578 227.789 622.675 227.933 622.741 228.092C622.807 228.25 622.841 228.42 622.841 228.592V229.761C622.841 230.623 623.096 231.465 623.575 232.182C624.054 232.898 624.735 233.457 625.531 233.787C626.328 234.117 627.204 234.203 628.05 234.035C628.895 233.867 629.672 233.452 630.281 232.843L651.629 211.495C652.261 210.863 652.683 210.051 652.839 209.171C652.994 208.291 652.875 207.384 652.498 206.573C637.353 174.047 617.092 144.159 592.483 118.049C592.083 117.624 591.602 117.284 591.068 117.049C590.535 116.814 589.959 116.688 589.376 116.68ZM282.158 110.169C281.585 110.074 280.999 110.095 280.434 110.23C279.868 110.366 279.336 110.612 278.867 110.956C274.271 114.331 268.81 116.331 263.121 116.721C257.432 117.11 251.75 115.875 246.736 113.158C245.91 112.711 244.962 112.542 244.032 112.677C243.103 112.812 242.242 113.244 241.578 113.908L194.661 160.824C193.862 161.623 193.404 162.702 193.385 163.832C193.302 168.66 192.057 173.397 189.757 177.643C189.309 178.468 189.14 179.417 189.275 180.347C189.411 181.276 189.843 182.138 190.507 182.802L216.658 208.952C217.448 209.742 218.512 210.199 219.629 210.228C220.746 210.256 221.831 209.854 222.66 209.105C252.75 181.947 290.835 165.275 331.201 161.59C332.284 161.491 333.291 160.991 334.024 160.188C334.757 159.384 335.164 158.336 335.164 157.249V147.666C335.164 146.51 334.704 145.401 333.887 144.584C333.069 143.767 331.961 143.307 330.805 143.307H318.236C317.352 143.307 316.489 143.038 315.761 142.536C303.772 134.264 293.361 123.913 285.021 111.973C284.688 111.496 284.263 111.092 283.771 110.782C283.28 110.472 282.731 110.264 282.158 110.169ZM416.047 110.23C415.482 110.095 414.895 110.074 414.321 110.169C413.748 110.264 413.199 110.472 412.708 110.782C412.217 111.092 411.792 111.496 411.459 111.973C403.118 123.913 392.707 134.264 380.719 142.536C379.991 143.038 379.127 143.307 378.243 143.307H365.675C364.519 143.307 363.41 143.767 362.593 144.584C361.775 145.401 361.316 146.51 361.316 147.666V157.249C361.316 158.336 361.723 159.384 362.456 160.188C363.189 160.991 364.196 161.491 365.278 161.59C405.645 165.275 443.729 181.947 473.819 209.105C474.649 209.854 475.735 210.256 476.852 210.228C477.969 210.199 479.032 209.742 479.822 208.952L505.973 182.802C506.637 182.138 507.069 181.276 507.204 180.347C507.339 179.417 507.17 178.468 506.723 177.643C504.422 173.397 503.178 168.66 503.095 163.832C503.075 162.702 502.617 161.623 501.818 160.824L454.902 113.908C454.238 113.244 453.377 112.812 452.447 112.677C451.518 112.542 450.569 112.711 449.743 113.158C444.73 115.875 439.047 117.111 433.358 116.721C427.669 116.331 422.208 114.331 417.612 110.956C417.144 110.612 416.612 110.366 416.047 110.23ZM163.314 148.494C161.368 148.494 159.441 148.877 157.644 149.622C155.846 150.367 154.211 151.459 152.835 152.835C151.459 154.211 150.368 155.845 149.623 157.643C148.878 159.441 148.495 161.368 148.495 163.314C148.495 165.26 148.878 167.187 149.623 168.985C150.368 170.783 151.459 172.417 152.835 173.793C154.211 175.169 155.846 176.261 157.644 177.006C159.441 177.75 161.368 178.134 163.314 178.134C165.26 178.134 167.187 177.751 168.985 177.006C170.783 176.261 172.418 175.169 173.794 173.793C175.17 172.417 176.261 170.783 177.006 168.985C177.751 167.187 178.134 165.26 178.134 163.314C178.134 161.368 177.751 159.441 177.006 157.643C176.261 155.845 175.17 154.211 173.794 152.835C172.418 151.459 170.783 150.367 168.985 149.622C167.187 148.877 165.26 148.494 163.314 148.494ZM533.165 148.494C531.219 148.494 529.292 148.877 527.494 149.622C525.696 150.367 524.063 151.459 522.687 152.835C521.31 154.211 520.218 155.845 519.474 157.643C518.729 159.441 518.346 161.368 518.346 163.314C518.346 165.26 518.729 167.187 519.474 168.985C520.218 170.783 521.31 172.417 522.687 173.793C524.063 175.169 525.696 176.261 527.494 177.006C529.292 177.751 531.219 178.134 533.165 178.134C535.111 178.134 537.039 177.751 538.837 177.006C540.635 176.261 542.268 175.169 543.645 173.793C545.021 172.417 546.113 170.783 546.857 168.985C547.602 167.187 547.985 165.26 547.985 163.314C547.985 161.368 547.602 159.441 546.857 157.643C546.113 155.845 545.021 154.211 543.645 152.835C542.268 151.459 540.635 150.367 538.837 149.622C537.039 148.877 535.111 148.494 533.165 148.494ZM209.171 43.6406C208.29 43.4852 207.384 43.6041 206.573 43.9814C174.047 59.1261 144.159 79.3879 118.049 103.996C117.625 104.396 117.285 104.878 117.05 105.411C116.815 105.945 116.688 106.521 116.68 107.104C116.671 107.688 116.78 108.266 116.999 108.807C117.218 109.347 117.544 109.839 117.956 110.251L143.827 136.121C144.491 136.785 145.352 137.217 146.281 137.353C147.211 137.488 148.159 137.319 148.985 136.871C155.365 133.414 162.78 132.38 169.862 133.96C176.944 135.54 183.217 139.626 187.522 145.467C187.895 145.972 188.372 146.391 188.921 146.694C189.47 146.998 190.078 147.18 190.703 147.228C191.329 147.275 191.958 147.186 192.546 146.968C193.134 146.75 193.669 146.407 194.112 145.963L232.843 107.232C233.452 106.623 233.868 105.846 234.036 105.001C234.204 104.156 234.118 103.279 233.788 102.482C233.458 101.686 232.899 101.005 232.183 100.526C231.466 100.047 230.623 99.792 229.761 99.792H228.593C228.246 99.792 227.913 99.6534 227.668 99.4082C227.423 99.1631 227.285 98.8309 227.285 98.4844V74.9473C227.285 74.6005 227.423 74.2677 227.668 74.0225C227.913 73.7772 228.246 73.6396 228.593 73.6396H229.761C230.623 73.6396 231.466 73.3832 232.183 72.9043C232.899 72.4254 233.458 71.7446 233.788 70.9482C234.118 70.1519 234.204 69.2751 234.036 68.4297C233.868 67.5843 233.452 66.8077 232.843 66.1982L211.495 44.8506C210.863 44.2184 210.051 43.7961 209.171 43.6406ZM489.906 43.9814C489.096 43.6042 488.189 43.4851 487.309 43.6406C486.428 43.7962 485.617 44.2184 484.984 44.8506L463.637 66.1982C463.027 66.8077 462.613 67.5844 462.444 68.4297C462.276 69.2752 462.363 70.1518 462.692 70.9482C463.022 71.7447 463.581 72.4254 464.298 72.9043C465.015 73.3831 465.857 73.6396 466.719 73.6396H467.888C468.234 73.6398 468.566 73.7774 468.812 74.0225C469.057 74.2677 469.195 74.6005 469.195 74.9473V98.4844C469.195 98.831 469.057 99.1631 468.812 99.4082C468.566 99.6533 468.234 99.7919 467.888 99.792H466.719C465.857 99.7921 465.015 100.048 464.298 100.526C463.581 101.005 463.022 101.686 462.692 102.482C462.362 103.279 462.276 104.155 462.444 105.001C462.613 105.846 463.027 106.623 463.637 107.232L502.367 145.963C502.811 146.407 503.345 146.75 503.934 146.968C504.522 147.186 505.151 147.275 505.776 147.228C506.402 147.18 507.01 146.998 507.56 146.694C508.108 146.391 508.586 145.972 508.958 145.467C513.264 139.626 519.536 135.54 526.618 133.96C533.7 132.38 541.115 133.414 547.494 136.871C548.32 137.319 549.269 137.488 550.198 137.353C551.128 137.217 551.989 136.785 552.653 136.121L578.523 110.251C578.936 109.839 579.261 109.347 579.48 108.807C579.7 108.266 579.808 107.688 579.8 107.104C579.791 106.521 579.666 105.945 579.431 105.411C579.196 104.877 578.855 104.396 578.431 103.996C552.32 79.388 522.432 59.1261 489.906 43.9814ZM373.626 42.709C372.755 42.6362 371.881 42.8061 371.102 43.2002C370.322 43.5944 369.666 44.197 369.208 44.9414C368.75 45.6858 368.508 46.5431 368.508 47.417V64.4854C368.508 65.6414 368.049 66.7509 367.231 67.5684C366.414 68.3856 365.305 68.8447 364.149 68.8447H354.778C353.044 68.8447 351.381 68.1557 350.155 66.9297C348.929 65.7036 348.24 64.0406 348.24 62.3066C348.24 64.0406 347.551 65.7036 346.325 66.9297C345.099 68.1557 343.436 68.8446 341.702 68.8447H332.33C331.174 68.8446 330.065 68.3857 329.248 67.5684C328.431 66.7509 327.972 65.6414 327.972 64.4854V47.417C327.972 46.5431 327.729 45.6858 327.271 44.9414C326.814 44.1972 326.159 43.5944 325.379 43.2002C324.599 42.806 323.724 42.6361 322.854 42.709C321.983 42.7819 321.149 43.0941 320.445 43.6123C311.761 50.0093 304.074 57.6608 297.637 66.3154C295.4 69.3232 294.191 72.9722 294.191 76.7207V96.71C294.191 100.458 295.4 104.107 297.637 107.115C304.074 115.77 311.761 123.421 320.445 129.818C321.149 130.337 321.983 130.65 322.854 130.723C323.724 130.795 324.599 130.625 325.379 130.23C326.159 129.836 326.814 129.233 327.271 128.489C327.729 127.745 327.972 126.888 327.972 126.015V108.945C327.972 107.789 328.431 106.681 329.248 105.863C330.065 105.046 331.174 104.586 332.33 104.586H341.702C343.436 104.586 345.099 105.275 346.325 106.501C347.551 107.727 348.24 109.39 348.24 111.124C348.24 109.39 348.929 107.727 350.155 106.501C351.381 105.275 353.044 104.586 354.778 104.586H364.149C365.305 104.586 366.414 105.046 367.231 105.863C368.049 106.681 368.508 107.789 368.508 108.945V126.015C368.508 126.888 368.75 127.745 369.208 128.489C369.666 129.234 370.322 129.836 371.102 130.23C371.881 130.625 372.755 130.795 373.626 130.723C374.497 130.65 375.331 130.337 376.034 129.818C384.719 123.421 392.405 115.77 398.843 107.115C401.08 104.107 402.288 100.459 402.288 96.71V76.7207C402.288 72.9721 401.08 69.3233 398.843 66.3154C392.405 57.6608 384.719 50.0093 376.034 43.6123C375.331 43.0941 374.497 42.7818 373.626 42.709ZM261.065 71.8955C257.135 71.8955 253.365 73.4571 250.586 76.2363C247.807 79.0156 246.245 82.7854 246.245 86.7158C246.245 90.646 247.807 94.4152 250.586 97.1943C253.365 99.9736 257.135 101.535 261.065 101.535C264.996 101.535 268.765 99.9735 271.544 97.1943C274.323 94.4152 275.885 90.6461 275.885 86.7158C275.885 82.7854 274.323 79.0156 271.544 76.2363C268.765 73.4572 264.996 71.8956 261.065 71.8955ZM435.415 71.8955C431.485 71.8955 427.715 73.4571 424.936 76.2363C422.156 79.0156 420.595 82.7854 420.595 86.7158C420.595 90.6461 422.156 94.4152 424.936 97.1943C427.715 99.9736 431.485 101.535 435.415 101.535C439.345 101.535 443.114 99.9735 445.894 97.1943C448.673 94.4152 450.234 90.6461 450.234 86.7158C450.234 82.7854 448.673 79.0156 445.894 76.2363C443.114 73.4572 439.345 71.8956 435.415 71.8955ZM330.575 13.082C294.828 14.9661 259.612 22.5575 226.263 35.5674C225.588 35.8307 224.989 36.2578 224.521 36.8105C224.052 37.3633 223.73 38.0245 223.581 38.7334C223.432 39.4422 223.462 40.1769 223.669 40.8711C223.876 41.5654 224.252 42.1977 224.765 42.71L241.578 59.5225C242.242 60.1865 243.103 60.6187 244.032 60.7539C244.962 60.8891 245.91 60.72 246.736 60.2725C251.75 57.5558 257.432 56.3211 263.121 56.7109C268.81 57.1008 274.271 59.0994 278.867 62.4746C279.336 62.8186 279.868 63.066 280.434 63.2012C280.999 63.3363 281.585 63.3565 282.158 63.2617C282.731 63.167 283.28 62.9592 283.771 62.6494C284.263 62.3396 284.688 61.9343 285.021 61.458C293.361 49.5177 303.772 39.1662 315.761 30.8945C316.489 30.3924 317.352 30.124 318.236 30.124H330.805C331.961 30.124 333.069 29.6648 333.887 28.8477C334.704 28.0302 335.164 26.9207 335.164 25.7646V17.4346C335.164 16.8429 335.043 16.2575 334.81 15.7139C334.576 15.1702 334.234 14.6797 333.805 14.2725C333.375 13.8653 332.868 13.5494 332.312 13.3447C331.757 13.1401 331.166 13.0509 330.575 13.082ZM365.904 13.082C365.313 13.0509 364.722 13.14 364.167 13.3447C363.612 13.5494 363.104 13.8652 362.675 14.2725C362.246 14.6797 361.904 15.1702 361.67 15.7139C361.436 16.2574 361.316 16.843 361.316 17.4346V25.7646C361.316 26.9207 361.775 28.0302 362.593 28.8477C363.41 29.6649 364.519 30.124 365.675 30.124H378.243C379.127 30.124 379.991 30.3925 380.719 30.8945C392.707 39.1662 403.118 49.5177 411.459 61.458C411.792 61.9344 412.216 62.3396 412.708 62.6494C413.199 62.9592 413.748 63.1669 414.321 63.2617C414.895 63.3565 415.482 63.3364 416.047 63.2012C416.612 63.066 417.144 62.8185 417.612 62.4746C422.208 59.0993 427.669 57.1008 433.358 56.7109C439.047 56.3211 444.73 57.5559 449.743 60.2725C450.569 60.72 451.518 60.8891 452.447 60.7539C453.377 60.6187 454.238 60.1867 454.902 59.5225L471.715 42.71C472.227 42.1977 472.604 41.5654 472.811 40.8711C473.017 40.177 473.048 39.4422 472.899 38.7334C472.751 38.0244 472.427 37.3633 471.959 36.8105C471.491 36.2578 470.892 35.8307 470.217 35.5674C436.868 22.5575 401.652 14.9661 365.904 13.082Z" fill="black"/>
</svg>
